#N canvas 1190 333 450 300 10;
#X obj 173 45 list append;
#X obj 173 89 print;
#X obj 173 23 midirealtimein;
#X obj 173 67 list prepend realtime;
#X obj 313 45 list append;
#X obj 313 89 print;
#X obj 313 23 midiclkin;
#X obj 313 67 list prepend clock;
#X obj 16 23 ctlin;
#X obj 16 45 pack f f f;
#X obj 16 67 print ctlin;
#X connect 0 0 3 0;
#X connect 2 0 0 0;
#X connect 2 1 0 1;
#X connect 3 0 1 0;
#X connect 4 0 7 0;
#X connect 6 0 4 0;
#X connect 6 1 4 1;
#X connect 7 0 5 0;
#X connect 8 0 9 0;
#X connect 8 1 9 1;
#X connect 8 2 9 2;
#X connect 9 0 10 0;
