#N canvas 577 304 450 300 10;
#X obj 119 18 ctlin 0 2;
#X obj 16 12 ctlin 1 2;
#X floatatom 16 34 5 0 0 0 - - -, f 5;
#X floatatom 119 40 5 0 0 0 - - -, f 5;
#X obj 119 59 mtof;
#X obj 119 133 dac~;
#X obj 119 106 *~;
#X obj 16 53 / 127;
#X obj 119 81 phasor~;
#X connect 0 0 3 0;
#X connect 1 0 2 0;
#X connect 2 0 7 0;
#X connect 3 0 4 0;
#X connect 4 0 8 0;
#X connect 6 0 5 0;
#X connect 6 0 5 1;
#X connect 7 0 6 1;
#X connect 8 0 6 0;
